<mxfile host="Electron" modified="2024-05-13T12:37:37.571Z" agent="Mozilla/5.0 (Windows NT 10.0; Win64; x64) AppleWebKit/537.36 (KHTML, like Gecko) draw.io/23.1.5 Chrome/120.0.6099.109 Electron/28.1.0 Safari/537.36" etag="bzhrAIGDr7ZuvMpwjuFu" version="23.1.5" type="device">
  <diagram name="Pagina-1" id="q7qFz3qGB-3pdDpHgq0G">
    <mxGraphModel dx="1050" dy="621" grid="1" gridSize="10" guides="1" tooltips="1" connect="1" arrows="1" fold="1" page="1" pageScale="1" pageWidth="827" pageHeight="1169" math="0" shadow="0">
      <root>
        <mxCell id="0" />
        <mxCell id="1" parent="0" />
        <mxCell id="Q_vP4xJhXx3wZThFHurV-21" value="" style="edgeStyle=orthogonalEdgeStyle;rounded=0;orthogonalLoop=1;jettySize=auto;html=1;" parent="1" source="Q_vP4xJhXx3wZThFHurV-5" target="Q_vP4xJhXx3wZThFHurV-10" edge="1">
          <mxGeometry relative="1" as="geometry" />
        </mxCell>
        <mxCell id="Q_vP4xJhXx3wZThFHurV-5" value="Crea/Elimina" style="shape=rhombus;perimeter=rhombusPerimeter;whiteSpace=wrap;html=1;align=center;" parent="1" vertex="1">
          <mxGeometry x="622" y="320" width="120" height="60" as="geometry" />
        </mxCell>
        <mxCell id="Q_vP4xJhXx3wZThFHurV-17" value="" style="edgeStyle=orthogonalEdgeStyle;rounded=0;orthogonalLoop=1;jettySize=auto;html=1;exitX=1;exitY=0.5;exitDx=0;exitDy=0;" parent="1" source="Q_vP4xJhXx3wZThFHurV-6" target="Q_vP4xJhXx3wZThFHurV-5" edge="1">
          <mxGeometry relative="1" as="geometry">
            <mxPoint x="562" y="350" as="sourcePoint" />
          </mxGeometry>
        </mxCell>
        <mxCell id="Q_vP4xJhXx3wZThFHurV-33" value="" style="edgeStyle=orthogonalEdgeStyle;rounded=0;orthogonalLoop=1;jettySize=auto;html=1;" parent="1" source="Q_vP4xJhXx3wZThFHurV-6" target="Q_vP4xJhXx3wZThFHurV-32" edge="1">
          <mxGeometry relative="1" as="geometry" />
        </mxCell>
        <mxCell id="Q_vP4xJhXx3wZThFHurV-6" value="Utente" style="whiteSpace=wrap;html=1;align=center;" parent="1" vertex="1">
          <mxGeometry x="310" y="330" width="100" height="40" as="geometry" />
        </mxCell>
        <mxCell id="Q_vP4xJhXx3wZThFHurV-7" value="Gioco" style="whiteSpace=wrap;html=1;align=center;" parent="1" vertex="1">
          <mxGeometry x="812" y="270" width="100" height="40" as="geometry" />
        </mxCell>
        <mxCell id="Q_vP4xJhXx3wZThFHurV-8" value="Amici" style="whiteSpace=wrap;html=1;align=center;" parent="1" vertex="1">
          <mxGeometry x="170" y="590" width="100" height="40" as="geometry" />
        </mxCell>
        <mxCell id="Q_vP4xJhXx3wZThFHurV-18" value="" style="edgeStyle=orthogonalEdgeStyle;rounded=0;orthogonalLoop=1;jettySize=auto;html=1;" parent="1" source="Q_vP4xJhXx3wZThFHurV-10" target="Q_vP4xJhXx3wZThFHurV-16" edge="1">
          <mxGeometry relative="1" as="geometry" />
        </mxCell>
        <mxCell id="Q_vP4xJhXx3wZThFHurV-26" value="" style="edgeStyle=orthogonalEdgeStyle;rounded=0;orthogonalLoop=1;jettySize=auto;html=1;" parent="1" source="Q_vP4xJhXx3wZThFHurV-10" target="Q_vP4xJhXx3wZThFHurV-14" edge="1">
          <mxGeometry relative="1" as="geometry" />
        </mxCell>
        <mxCell id="Q_vP4xJhXx3wZThFHurV-10" value="Torneo" style="whiteSpace=wrap;html=1;align=center;" parent="1" vertex="1">
          <mxGeometry x="632" y="415" width="100" height="40" as="geometry" />
        </mxCell>
        <mxCell id="Q_vP4xJhXx3wZThFHurV-11" value="Classifica" style="whiteSpace=wrap;html=1;align=center;" parent="1" vertex="1">
          <mxGeometry x="632" y="595" width="100" height="40" as="geometry" />
        </mxCell>
        <mxCell id="Q_vP4xJhXx3wZThFHurV-25" value="" style="edgeStyle=orthogonalEdgeStyle;rounded=0;orthogonalLoop=1;jettySize=auto;html=1;" parent="1" source="Q_vP4xJhXx3wZThFHurV-14" target="Q_vP4xJhXx3wZThFHurV-7" edge="1">
          <mxGeometry relative="1" as="geometry" />
        </mxCell>
        <mxCell id="Q_vP4xJhXx3wZThFHurV-14" value="Aggiungi" style="shape=rhombus;perimeter=rhombusPerimeter;whiteSpace=wrap;html=1;align=center;" parent="1" vertex="1">
          <mxGeometry x="802" y="405" width="120" height="60" as="geometry" />
        </mxCell>
        <mxCell id="Q_vP4xJhXx3wZThFHurV-27" value="" style="edgeStyle=orthogonalEdgeStyle;rounded=0;orthogonalLoop=1;jettySize=auto;html=1;" parent="1" source="Q_vP4xJhXx3wZThFHurV-15" target="Q_vP4xJhXx3wZThFHurV-8" edge="1">
          <mxGeometry relative="1" as="geometry" />
        </mxCell>
        <mxCell id="Q_vP4xJhXx3wZThFHurV-15" value="Aggiungi" style="shape=rhombus;perimeter=rhombusPerimeter;whiteSpace=wrap;html=1;align=center;" parent="1" vertex="1">
          <mxGeometry x="300" y="580" width="120" height="60" as="geometry" />
        </mxCell>
        <mxCell id="Q_vP4xJhXx3wZThFHurV-22" value="" style="edgeStyle=orthogonalEdgeStyle;rounded=0;orthogonalLoop=1;jettySize=auto;html=1;" parent="1" source="Q_vP4xJhXx3wZThFHurV-16" target="Q_vP4xJhXx3wZThFHurV-11" edge="1">
          <mxGeometry relative="1" as="geometry" />
        </mxCell>
        <mxCell id="Q_vP4xJhXx3wZThFHurV-16" value="Genera" style="shape=rhombus;perimeter=rhombusPerimeter;whiteSpace=wrap;html=1;align=center;" parent="1" vertex="1">
          <mxGeometry x="622" y="491" width="120" height="60" as="geometry" />
        </mxCell>
        <mxCell id="Q_vP4xJhXx3wZThFHurV-35" value="" style="edgeStyle=orthogonalEdgeStyle;rounded=0;orthogonalLoop=1;jettySize=auto;html=1;" parent="1" source="Q_vP4xJhXx3wZThFHurV-32" target="Q_vP4xJhXx3wZThFHurV-34" edge="1">
          <mxGeometry relative="1" as="geometry" />
        </mxCell>
        <mxCell id="Q_vP4xJhXx3wZThFHurV-32" value="Modifica/Elimina" style="shape=rhombus;perimeter=rhombusPerimeter;whiteSpace=wrap;html=1;align=center;" parent="1" vertex="1">
          <mxGeometry x="300" y="410" width="120" height="60" as="geometry" />
        </mxCell>
        <mxCell id="Q_vP4xJhXx3wZThFHurV-38" value="" style="edgeStyle=orthogonalEdgeStyle;rounded=0;orthogonalLoop=1;jettySize=auto;html=1;" parent="1" edge="1">
          <mxGeometry relative="1" as="geometry">
            <mxPoint x="360" y="541" as="sourcePoint" />
            <mxPoint x="360" y="581" as="targetPoint" />
          </mxGeometry>
        </mxCell>
        <mxCell id="Q_vP4xJhXx3wZThFHurV-34" value="Account" style="whiteSpace=wrap;html=1;align=center;" parent="1" vertex="1">
          <mxGeometry x="310" y="500" width="100" height="40" as="geometry" />
        </mxCell>
        <mxCell id="Q_vP4xJhXx3wZThFHurV-41" value="Gestione Accesso" style="whiteSpace=wrap;html=1;align=center;" parent="1" vertex="1">
          <mxGeometry x="20" y="330" width="100" height="40" as="geometry" />
        </mxCell>
        <mxCell id="Q_vP4xJhXx3wZThFHurV-44" value="" style="edgeStyle=orthogonalEdgeStyle;rounded=0;orthogonalLoop=1;jettySize=auto;html=1;" parent="1" source="Q_vP4xJhXx3wZThFHurV-42" target="Q_vP4xJhXx3wZThFHurV-43" edge="1">
          <mxGeometry relative="1" as="geometry" />
        </mxCell>
        <mxCell id="Q_vP4xJhXx3wZThFHurV-42" value="Utente non reigstrato" style="whiteSpace=wrap;html=1;align=center;" parent="1" vertex="1">
          <mxGeometry x="20" y="615" width="100" height="40" as="geometry" />
        </mxCell>
        <mxCell id="Q_vP4xJhXx3wZThFHurV-45" value="" style="edgeStyle=orthogonalEdgeStyle;rounded=0;orthogonalLoop=1;jettySize=auto;html=1;" parent="1" source="Q_vP4xJhXx3wZThFHurV-43" target="Q_vP4xJhXx3wZThFHurV-41" edge="1">
          <mxGeometry relative="1" as="geometry" />
        </mxCell>
        <mxCell id="Q_vP4xJhXx3wZThFHurV-43" value="Registrazione" style="shape=rhombus;perimeter=rhombusPerimeter;whiteSpace=wrap;html=1;align=center;" parent="1" vertex="1">
          <mxGeometry x="10" y="470" width="120" height="60" as="geometry" />
        </mxCell>
        <mxCell id="Q_vP4xJhXx3wZThFHurV-47" value="" style="edgeStyle=orthogonalEdgeStyle;rounded=0;orthogonalLoop=1;jettySize=auto;html=1;" parent="1" source="Q_vP4xJhXx3wZThFHurV-46" target="Q_vP4xJhXx3wZThFHurV-41" edge="1">
          <mxGeometry relative="1" as="geometry" />
        </mxCell>
        <mxCell id="Q_vP4xJhXx3wZThFHurV-48" value="" style="edgeStyle=orthogonalEdgeStyle;rounded=0;orthogonalLoop=1;jettySize=auto;html=1;" parent="1" source="Q_vP4xJhXx3wZThFHurV-46" target="Q_vP4xJhXx3wZThFHurV-6" edge="1">
          <mxGeometry relative="1" as="geometry" />
        </mxCell>
        <mxCell id="Q_vP4xJhXx3wZThFHurV-46" value="Log-in/Log-out" style="shape=rhombus;perimeter=rhombusPerimeter;whiteSpace=wrap;html=1;align=center;" parent="1" vertex="1">
          <mxGeometry x="150" y="320" width="120" height="60" as="geometry" />
        </mxCell>
        <mxCell id="Q_vP4xJhXx3wZThFHurV-54" value="(0,1)" style="text;align=center;fontStyle=1;verticalAlign=middle;spacingLeft=3;spacingRight=3;strokeColor=none;rotatable=0;points=[[0,0.5],[1,0.5]];portConstraint=eastwest;html=1;" parent="1" vertex="1">
          <mxGeometry x="280" y="380" width="80" height="26" as="geometry" />
        </mxCell>
        <mxCell id="Q_vP4xJhXx3wZThFHurV-57" value="(0,1)" style="text;align=center;fontStyle=1;verticalAlign=middle;spacingLeft=3;spacingRight=3;strokeColor=none;rotatable=0;points=[[0,0.5],[1,0.5]];portConstraint=eastwest;html=1;" parent="1" vertex="1">
          <mxGeometry x="275" y="465" width="80" height="26" as="geometry" />
        </mxCell>
        <mxCell id="Q_vP4xJhXx3wZThFHurV-58" value="(0,N)" style="text;align=center;fontStyle=1;verticalAlign=middle;spacingLeft=3;spacingRight=3;strokeColor=none;rotatable=0;points=[[0,0.5],[1,0.5]];portConstraint=eastwest;html=1;" parent="1" vertex="1">
          <mxGeometry x="397" y="320" width="80" height="26" as="geometry" />
        </mxCell>
        <mxCell id="Q_vP4xJhXx3wZThFHurV-59" value="(1, 1)" style="text;align=center;fontStyle=1;verticalAlign=middle;spacingLeft=3;spacingRight=3;strokeColor=none;rotatable=0;points=[[0,0.5],[1,0.5]];portConstraint=eastwest;html=1;" parent="1" vertex="1">
          <mxGeometry x="622" y="386" width="80" height="26" as="geometry" />
        </mxCell>
        <mxCell id="Q_vP4xJhXx3wZThFHurV-60" value="(1,1)" style="text;align=center;fontStyle=1;verticalAlign=middle;spacingLeft=3;spacingRight=3;strokeColor=none;rotatable=0;points=[[0,0.5],[1,0.5]];portConstraint=eastwest;html=1;" parent="1" vertex="1">
          <mxGeometry x="612" y="465" width="80" height="26" as="geometry" />
        </mxCell>
        <mxCell id="Q_vP4xJhXx3wZThFHurV-61" value="(1,1)" style="text;align=center;fontStyle=1;verticalAlign=middle;spacingLeft=3;spacingRight=3;strokeColor=none;rotatable=0;points=[[0,0.5],[1,0.5]];portConstraint=eastwest;html=1;" parent="1" vertex="1">
          <mxGeometry x="612" y="560" width="80" height="26" as="geometry" />
        </mxCell>
        <mxCell id="Q_vP4xJhXx3wZThFHurV-62" value="(1,1)" style="text;align=center;fontStyle=1;verticalAlign=middle;spacingLeft=3;spacingRight=3;strokeColor=none;rotatable=0;points=[[0,0.5],[1,0.5]];portConstraint=eastwest;html=1;" parent="1" vertex="1">
          <mxGeometry x="742" y="400" width="40" height="26" as="geometry" />
        </mxCell>
        <mxCell id="Q_vP4xJhXx3wZThFHurV-64" value="(0, N)" style="text;align=center;fontStyle=1;verticalAlign=middle;spacingLeft=3;spacingRight=3;strokeColor=none;rotatable=0;points=[[0,0.5],[1,0.5]];portConstraint=eastwest;html=1;" parent="1" vertex="1">
          <mxGeometry x="872" y="320" width="40" height="26" as="geometry" />
        </mxCell>
        <mxCell id="Q_vP4xJhXx3wZThFHurV-65" value="&lt;span style=&quot;color: rgb(0, 0, 0); font-family: Helvetica; font-size: 12px; font-style: normal; font-variant-ligatures: normal; font-variant-caps: normal; font-weight: 700; letter-spacing: normal; orphans: 2; text-align: center; text-indent: 0px; text-transform: none; widows: 2; word-spacing: 0px; -webkit-text-stroke-width: 0px; background-color: rgb(251, 251, 251); text-decoration-thickness: initial; text-decoration-style: initial; text-decoration-color: initial; float: none; display: inline !important;&quot;&gt;(1,1)&lt;/span&gt;" style="text;whiteSpace=wrap;html=1;" parent="1" vertex="1">
          <mxGeometry x="90" y="559" width="30" height="27" as="geometry" />
        </mxCell>
        <mxCell id="Q_vP4xJhXx3wZThFHurV-66" value="&lt;span style=&quot;color: rgb(0, 0, 0); font-family: Helvetica; font-size: 12px; font-style: normal; font-variant-ligatures: normal; font-variant-caps: normal; font-weight: 700; letter-spacing: normal; orphans: 2; text-align: center; text-indent: 0px; text-transform: none; widows: 2; word-spacing: 0px; -webkit-text-stroke-width: 0px; background-color: rgb(251, 251, 251); text-decoration-thickness: initial; text-decoration-style: initial; text-decoration-color: initial; float: none; display: inline !important;&quot;&gt;(1,1)&lt;/span&gt;" style="text;whiteSpace=wrap;html=1;" parent="1" vertex="1">
          <mxGeometry x="80" y="406" width="30" height="27" as="geometry" />
        </mxCell>
        <mxCell id="Q_vP4xJhXx3wZThFHurV-67" value="&lt;span style=&quot;color: rgb(0, 0, 0); font-family: Helvetica; font-size: 12px; font-style: normal; font-variant-ligatures: normal; font-variant-caps: normal; font-weight: 700; letter-spacing: normal; orphans: 2; text-align: center; text-indent: 0px; text-transform: none; widows: 2; word-spacing: 0px; -webkit-text-stroke-width: 0px; background-color: rgb(251, 251, 251); text-decoration-thickness: initial; text-decoration-style: initial; text-decoration-color: initial; float: none; display: inline !important;&quot;&gt;(0,1)&lt;/span&gt;" style="text;whiteSpace=wrap;html=1;" parent="1" vertex="1">
          <mxGeometry x="270" y="310" width="30" height="27" as="geometry" />
        </mxCell>
        <mxCell id="Q_vP4xJhXx3wZThFHurV-68" value="&lt;span style=&quot;color: rgb(0, 0, 0); font-family: Helvetica; font-size: 12px; font-style: normal; font-variant-ligatures: normal; font-variant-caps: normal; font-weight: 700; letter-spacing: normal; orphans: 2; text-align: center; text-indent: 0px; text-transform: none; widows: 2; word-spacing: 0px; -webkit-text-stroke-width: 0px; background-color: rgb(251, 251, 251); text-decoration-thickness: initial; text-decoration-style: initial; text-decoration-color: initial; float: none; display: inline !important;&quot;&gt;(0,1)&lt;/span&gt;" style="text;whiteSpace=wrap;html=1;" parent="1" vertex="1">
          <mxGeometry x="130" y="310" width="30" height="30" as="geometry" />
        </mxCell>
        <mxCell id="Q_vP4xJhXx3wZThFHurV-70" value="&lt;span style=&quot;color: rgb(0, 0, 0); font-family: Helvetica; font-size: 12px; font-style: normal; font-variant-ligatures: normal; font-variant-caps: normal; font-weight: 700; letter-spacing: normal; orphans: 2; text-align: center; text-indent: 0px; text-transform: none; widows: 2; word-spacing: 0px; -webkit-text-stroke-width: 0px; background-color: rgb(251, 251, 251); text-decoration-thickness: initial; text-decoration-style: initial; text-decoration-color: initial; float: none; display: inline !important;&quot;&gt;(0,N)&lt;/span&gt;" style="text;whiteSpace=wrap;html=1;" parent="1" vertex="1">
          <mxGeometry x="300" y="550" width="30" height="20" as="geometry" />
        </mxCell>
        <mxCell id="VZ7qsGMLw0wXr37yPeVG-1" value="" style="endArrow=classic;html=1;rounded=0;exitX=0.25;exitY=0;exitDx=0;exitDy=0;" edge="1" parent="1" source="Q_vP4xJhXx3wZThFHurV-6">
          <mxGeometry width="50" height="50" relative="1" as="geometry">
            <mxPoint x="295" y="285" as="sourcePoint" />
            <mxPoint x="335" y="250" as="targetPoint" />
          </mxGeometry>
        </mxCell>
        <mxCell id="VZ7qsGMLw0wXr37yPeVG-2" value="Aggiungi/Rimuovi&lt;br&gt;Preferito" style="shape=rhombus;perimeter=rhombusPerimeter;whiteSpace=wrap;html=1;align=center;" vertex="1" parent="1">
          <mxGeometry x="275" y="190" width="120" height="60" as="geometry" />
        </mxCell>
        <mxCell id="VZ7qsGMLw0wXr37yPeVG-3" value="" style="endArrow=classic;html=1;rounded=0;exitX=1;exitY=0.5;exitDx=0;exitDy=0;entryX=0;entryY=0.5;entryDx=0;entryDy=0;" edge="1" parent="1" source="VZ7qsGMLw0wXr37yPeVG-2" target="Q_vP4xJhXx3wZThFHurV-7">
          <mxGeometry width="50" height="50" relative="1" as="geometry">
            <mxPoint x="547" y="219.5" as="sourcePoint" />
            <mxPoint x="867" y="220" as="targetPoint" />
          </mxGeometry>
        </mxCell>
        <mxCell id="VZ7qsGMLw0wXr37yPeVG-4" value="(0, N)" style="text;align=center;fontStyle=1;verticalAlign=middle;spacingLeft=3;spacingRight=3;strokeColor=none;rotatable=0;points=[[0,0.5],[1,0.5]];portConstraint=eastwest;html=1;" vertex="1" parent="1">
          <mxGeometry x="752" y="250" width="40" height="26" as="geometry" />
        </mxCell>
        <mxCell id="VZ7qsGMLw0wXr37yPeVG-5" value="(0, N)" style="text;align=center;fontStyle=1;verticalAlign=middle;spacingLeft=3;spacingRight=3;strokeColor=none;rotatable=0;points=[[0,0.5],[1,0.5]];portConstraint=eastwest;html=1;" vertex="1" parent="1">
          <mxGeometry x="340" y="294" width="40" height="26" as="geometry" />
        </mxCell>
        <mxCell id="VZ7qsGMLw0wXr37yPeVG-9" style="edgeStyle=orthogonalEdgeStyle;rounded=0;orthogonalLoop=1;jettySize=auto;html=1;exitX=1;exitY=0.5;exitDx=0;exitDy=0;" edge="1" parent="1" source="VZ7qsGMLw0wXr37yPeVG-6" target="Q_vP4xJhXx3wZThFHurV-10">
          <mxGeometry relative="1" as="geometry" />
        </mxCell>
        <mxCell id="VZ7qsGMLw0wXr37yPeVG-6" value="Iscrivi/Disiscrivi" style="shape=rhombus;perimeter=rhombusPerimeter;whiteSpace=wrap;html=1;align=center;" vertex="1" parent="1">
          <mxGeometry x="460" y="405" width="120" height="60" as="geometry" />
        </mxCell>
        <mxCell id="VZ7qsGMLw0wXr37yPeVG-7" value="" style="edgeStyle=orthogonalEdgeStyle;rounded=0;orthogonalLoop=1;jettySize=auto;html=1;entryX=0;entryY=0.5;entryDx=0;entryDy=0;exitX=0.75;exitY=1;exitDx=0;exitDy=0;" edge="1" parent="1" source="Q_vP4xJhXx3wZThFHurV-6" target="VZ7qsGMLw0wXr37yPeVG-6">
          <mxGeometry relative="1" as="geometry">
            <mxPoint x="380" y="388" as="sourcePoint" />
            <mxPoint x="420" y="388" as="targetPoint" />
            <Array as="points">
              <mxPoint x="385" y="388" />
              <mxPoint x="460" y="388" />
            </Array>
          </mxGeometry>
        </mxCell>
        <mxCell id="VZ7qsGMLw0wXr37yPeVG-10" value="(0,N)" style="text;align=center;fontStyle=1;verticalAlign=middle;spacingLeft=3;spacingRight=3;strokeColor=none;rotatable=0;points=[[0,0.5],[1,0.5]];portConstraint=eastwest;html=1;" vertex="1" parent="1">
          <mxGeometry x="380" y="360" width="80" height="26" as="geometry" />
        </mxCell>
        <mxCell id="VZ7qsGMLw0wXr37yPeVG-11" value="(0,N)" style="text;align=center;fontStyle=1;verticalAlign=middle;spacingLeft=3;spacingRight=3;strokeColor=none;rotatable=0;points=[[0,0.5],[1,0.5]];portConstraint=eastwest;html=1;" vertex="1" parent="1">
          <mxGeometry x="560" y="410" width="80" height="26" as="geometry" />
        </mxCell>
      </root>
    </mxGraphModel>
  </diagram>
</mxfile>
